<svg width="320" height="128" viewBox="0 0 320 128" fill="none" xmlns="http://www.w3.org/2000/svg">
<g clip-path="url(#clip0_319_3)">
<rect width="320" height="128" fill="#58C45A"/>
<mask id="mask0_319_3" style="mask-type:alpha" maskUnits="userSpaceOnUse" x="0" y="0" width="320" height="145">
<path d="M0 0H320V145H0V0Z" fill="white"/>
</mask>
<g mask="url(#mask0_319_3)">
<path d="M112.834 25.399L112.311 21.2221L108.16 20.6965C81.5027 17.3222 55.3607 26.314 36.413 45.3741C27.2744 54.5647 20.4898 65.45 16.2631 77.2539C12.0365 65.45 5.25182 54.5648 -3.88677 45.3741C-22.836 26.3155 -48.9794 17.3236 -75.6336 20.6965L-79.785 21.2221L-80.3076 25.399C-83.6626 52.1983 -74.7194 78.4987 -55.7703 97.5573C-39.4415 113.982 -17.7629 122.932 4.97253 122.932C6.9321 122.932 8.90013 122.853 10.8722 122.719V188H21.6541V122.719C23.6258 122.852 25.5935 122.931 27.5538 122.931C50.2878 122.931 71.9678 113.98 88.2966 97.5573C107.246 78.4987 116.189 52.1983 112.834 25.399ZM10.3693 111.896C-11.455 113.445 -32.5814 105.545 -48.1477 89.8907C-63.7139 74.2345 -71.5603 52.986 -70.0278 31.0342C-48.236 29.4973 -27.0772 37.3846 -11.5094 53.0408C4.05533 68.697 11.9018 89.944 10.3693 111.896ZM80.6739 89.8907C65.1076 105.547 43.9842 113.446 22.157 111.896C20.6245 89.944 28.4709 68.697 44.0357 53.0408C59.6019 37.3847 80.7225 29.4885 102.554 31.0343C104.087 52.986 96.2401 74.2345 80.6739 89.8907Z" fill="#69CA6A"/>
</g>
</g>
<defs>
<clipPath id="clip0_319_3">
<rect width="320" height="128" fill="white"/>
</clipPath>
</defs>
</svg>
