<svg width="159" height="55" viewBox="0 0 159 55" fill="none" xmlns="http://www.w3.org/2000/svg">
<path d="M13.7654 28.1888C14.6625 28.7946 15.3525 29.5239 15.8352 30.3765C16.3175 31.2295 16.5588 32.1938 16.5588 33.2709C16.5588 34.4152 16.3232 35.4307 15.852 36.3167C15.3809 37.2034 14.6909 37.9606 13.7822 38.5886C12.8735 39.2169 11.7797 39.6939 10.5007 40.0188C9.22185 40.3444 7.76304 40.5069 6.12547 40.5069H2.86083V47.7093H6.10352e-05V26.3376H6.12547C7.76304 26.3376 9.22185 26.495 10.5007 26.809C11.7797 27.1233 12.8677 27.5831 13.7654 28.1888ZM11.9816 38.1847C13.2606 37.0403 13.9447 35.4474 14.0346 33.4055C14.0346 31.3641 13.3836 29.7822 12.0826 28.66C10.7811 27.5383 8.76166 26.9661 6.02451 26.9436L2.86082 26.9098V39.9011H6.15912C8.76167 39.9011 10.7027 39.3289 11.9816 38.1847Z" fill="#222222"/>
<path d="M36.685 47.0025H37.4927V47.7093H35.0695C32.9828 47.7093 31.3337 47.025 30.1221 45.6562C30.0769 45.6116 30.0211 45.5553 29.9538 45.488L29.8192 45.3197L26.0497 41.0117C24.7708 39.4863 23.6375 38.7232 22.6505 38.7232H21.5734V47.7093H18.7127V26.3376H26.0497C28.7643 26.3376 30.8625 26.871 32.3434 27.9365C33.8243 29.0024 34.5647 30.5 34.5647 32.4294C34.5647 34.2922 33.9026 35.7729 32.579 36.872C31.2548 37.9716 29.4037 38.5776 27.0257 38.6894C27.2277 38.7795 27.4296 38.8803 27.6315 38.9924C27.8335 39.105 28.007 39.2112 28.1532 39.312C28.2989 39.4131 28.4561 39.5308 28.6244 39.6654C28.7927 39.8001 28.9325 39.9127 29.0451 40.0022C29.1571 40.092 29.2859 40.2098 29.4321 40.3554C29.5778 40.5017 29.6898 40.6136 29.7687 40.6921C29.847 40.7709 29.948 40.8887 30.0716 41.0455C30.1947 41.2027 30.2788 41.3035 30.324 41.3483C30.3687 41.3936 30.4418 41.4888 30.5428 41.6344C30.6437 41.7805 30.7053 41.8532 30.7279 41.8532C30.7952 41.943 30.8962 42.0776 31.0308 42.257C31.5914 42.9753 32.0405 43.536 32.377 43.9398C32.7136 44.3436 33.1511 44.8265 33.6896 45.387C34.2281 45.9482 34.744 46.3579 35.2378 46.6155C35.7311 46.8737 36.2138 47.0025 36.685 47.0025ZM21.5734 38.0837H26.0834C27.1152 38.0837 27.9791 37.9606 28.6749 37.7134C29.3701 37.4667 29.9422 37.1023 30.3914 36.6196C30.8399 36.1375 31.1707 35.5426 31.3842 34.8359C31.5972 34.1291 31.715 33.3272 31.7376 32.4294C31.7376 31.5545 31.6419 30.7804 31.4515 30.1071C31.2606 29.4341 30.9351 28.8678 30.4755 28.4076C30.0153 27.948 29.4153 27.5888 28.6749 27.3305C27.9345 27.0729 27.0142 26.9436 25.9151 26.9436L21.5735 26.9098V38.0837H21.5734Z" fill="#222222"/>
<path d="M42.0028 47.0698H53.1766V47.7093H39.142V26.3376H52.5708V26.9771H42.0028V35.0883H50.1476V35.694H42.0028V47.0698Z" fill="#222222"/>
<path d="M73.0673 26.3376H75.9954V47.7093H73.1347V28.5254L66.5381 45.3534L67.4804 47.7093H64.6197L55.6672 27.9869V47.7093H54.9268L54.8931 26.3376H58.1913L66.0332 44.209L73.0673 26.3376Z" fill="#222222"/>
<path d="M79.3603 26.3376H82.2211V47.7093H79.3603V26.3376Z" fill="#222222"/>
<path d="M99.0149 26.9771H88.4469V35.0883H96.5916V35.694H88.4469V47.7093H85.5862V26.3376H99.0149V26.9771Z" fill="#222222"/>
<path d="M112.174 47.7092L104.265 29.8042L100.091 39.7664H108.001L108.303 40.4059H99.8221L96.7594 47.7092H95.8844L103.794 29.1983L102.515 26.304H105.88L115.237 47.7092H112.174V47.7092Z" fill="#222222"/>
<path d="M134.791 47.0025H135.599V47.7093H133.175C131.089 47.7093 129.44 47.025 128.228 45.6562C128.183 45.6116 128.127 45.5553 128.06 45.488L127.925 45.3197L124.156 41.0117C122.877 39.4863 121.743 38.7232 120.756 38.7232H119.679V47.7093H116.819V26.3376H124.156C126.87 26.3376 128.968 26.871 130.449 27.9365C131.93 29.0024 132.671 30.5 132.671 32.4294C132.671 34.2922 132.009 35.7729 130.685 36.872C129.361 37.9716 127.51 38.5776 125.132 38.6894C125.334 38.7795 125.536 38.8803 125.737 38.9924C125.939 39.105 126.113 39.2112 126.259 39.312C126.405 39.4131 126.562 39.5308 126.73 39.6654C126.899 39.8001 127.038 39.9127 127.151 40.0022C127.263 40.092 127.392 40.2098 127.538 40.3554C127.684 40.5017 127.796 40.6136 127.875 40.6921C127.953 40.7709 128.054 40.8887 128.178 41.0455C128.301 41.2027 128.385 41.3035 128.43 41.3483C128.475 41.3936 128.548 41.4888 128.649 41.6344C128.75 41.7805 128.811 41.8532 128.834 41.8532C128.901 41.943 129.002 42.0776 129.137 42.257C129.697 42.9753 130.146 43.536 130.483 43.9398C130.819 44.3436 131.257 44.8265 131.795 45.387C132.334 45.9482 132.85 46.3579 133.344 46.6155C133.837 46.8737 134.32 47.0025 134.791 47.0025ZM119.679 38.0837H124.189C125.221 38.0837 126.085 37.9606 126.781 37.7134C127.476 37.4667 128.048 37.1023 128.497 36.6196C128.946 36.1375 129.277 35.5426 129.49 34.8359C129.703 34.1291 129.821 33.3272 129.843 32.4294C129.843 31.5545 129.748 30.7804 129.557 30.1071C129.367 29.4341 129.041 28.8678 128.581 28.4076C128.121 27.948 127.521 27.5888 126.781 27.3305C126.04 27.0729 125.12 26.9436 124.021 26.9436L119.679 26.9098V38.0837Z" fill="#222222"/>
<path d="M155.388 26.3376H158.317V47.7093H155.456V28.5254L148.859 45.3534L149.802 47.7093H146.941L137.988 27.9869V47.7093H137.248L137.214 26.3376H140.513L148.354 44.209L155.388 26.3376Z" fill="#222222"/>
<path d="M80.7906 54.2129C79.857 54.2129 79.0975 53.4534 79.0975 52.5198C79.0975 51.5864 79.857 50.8269 80.7906 50.8269C81.7242 50.8269 82.4837 51.5864 82.4837 52.5198C82.4837 53.4534 81.7242 54.2129 80.7906 54.2129ZM80.7906 51.3441C80.1423 51.3441 79.6147 51.8715 79.6147 52.5198C79.6147 53.1681 80.1423 53.6957 80.7906 53.6957C81.4389 53.6957 81.9665 53.1681 81.9665 52.5198C81.9665 51.8715 81.4389 51.3441 80.7906 51.3441Z" fill="#58C45A"/>
<path d="M95.0103 0.790388L94.9334 0.178915L94.3221 0.101967C90.3971 -0.392023 86.5479 0.924346 83.758 3.71466C82.4124 5.06013 81.4135 6.65368 80.7911 8.38173C80.1688 6.65368 79.1698 5.06014 77.8242 3.71466C75.0341 0.924564 71.1847 -0.39181 67.2601 0.101967L66.6488 0.178915L66.5719 0.790388C66.0779 4.7137 67.3947 8.56397 70.1848 11.3541C72.5891 13.7586 75.7811 15.0689 79.1287 15.0689C79.4172 15.0689 79.707 15.0573 79.9974 15.0377V24.5945H81.5849V15.0376C81.8752 15.0572 82.1649 15.0686 82.4536 15.0686C85.801 15.0686 88.9931 13.7583 91.3974 11.3541C94.1875 8.56397 95.5043 4.7137 95.0103 0.790388ZM79.9233 13.4532C76.7099 13.6799 73.5992 12.5235 71.3072 10.2317C69.0152 7.9397 67.8599 4.82901 68.0855 1.61536C71.2942 1.39037 74.4096 2.54504 76.7018 4.83703C78.9936 7.12903 80.1489 10.2395 79.9233 13.4532ZM90.275 10.2317C87.983 12.5237 84.8728 13.6801 81.6589 13.4532C81.4333 10.2395 82.5886 7.12903 84.8804 4.83703C87.1724 2.54504 90.2822 1.38907 93.4967 1.61537C93.7224 4.82901 92.567 7.9397 90.275 10.2317Z" fill="#58C45A"/>
</svg>
