<svg width="12" height="10" viewBox="0 0 12 10" fill="none" xmlns="http://www.w3.org/2000/svg">
<path d="M11.1338 0.308336L11.1038 0.0697962L10.8653 0.0397779C9.33414 -0.152931 7.83255 0.360594 6.74419 1.44912C6.21927 1.97399 5.82957 2.59565 5.58679 3.26977C5.34401 2.59565 4.9543 1.974 4.42938 1.44912C3.34094 0.360679 1.83926 -0.152848 0.308243 0.0397779L0.0697876 0.0697962L0.0397693 0.308336C-0.15294 1.83885 0.360755 3.34087 1.44919 4.4293C2.38712 5.36731 3.63233 5.87847 4.93826 5.87847C5.05081 5.87847 5.16386 5.87396 5.27714 5.86631V9.59449H5.89644V5.86627C6.0097 5.87391 6.12272 5.87839 6.23532 5.87839C7.54116 5.87839 8.78646 5.36723 9.72439 4.4293C10.8128 3.34087 11.3265 1.83885 11.1338 0.308336ZM5.24825 5.24817C3.99466 5.33662 2.78116 4.8855 1.88704 3.99146C0.992912 3.09733 0.542215 1.88383 0.63024 0.630165C1.88196 0.542393 3.09732 0.992838 3.99153 1.88696C4.88557 2.78109 5.33627 3.9945 5.24825 5.24817ZM9.28654 3.99146C8.39241 4.88558 7.17908 5.3367 5.92533 5.24817C5.8373 3.9945 6.288 2.78109 7.18204 1.88696C8.07616 0.992839 9.28933 0.541887 10.5433 0.630167C10.6314 1.88383 10.1807 3.09734 9.28654 3.99146Z" fill="#BEBEBE"/>
</svg>
