<svg width="11" height="13" viewBox="0 0 11 13" fill="none" xmlns="http://www.w3.org/2000/svg">
<path fill-rule="evenodd" clip-rule="evenodd" d="M6.09133 12.2471C7.95625 10.4518 10.6364 7.87186 10.6364 5.31818C10.6364 2.38103 8.25533 0 5.31818 0C2.38103 0 0 2.38103 0 5.31818C0 7.87186 2.68011 10.4518 4.54503 12.2471C4.82508 12.5167 5.08674 12.7686 5.31818 13C5.54963 12.7686 5.81129 12.5167 6.09133 12.2471ZM5.31818 7.09091C6.29723 7.09091 7.09091 6.29723 7.09091 5.31818C7.09091 4.33913 6.29723 3.54545 5.31818 3.54545C4.33913 3.54545 3.54545 4.33913 3.54545 5.31818C3.54545 6.29723 4.33913 7.09091 5.31818 7.09091Z" fill="#222222"/>
</svg>
