<svg width="17" height="18" viewBox="0 0 17 18" fill="none" xmlns="http://www.w3.org/2000/svg">
<path d="M5.23781 9.592H3.89381V8.8H7.55381V9.592H6.20981V13H5.23781V9.592ZM8.0768 8.8H9.9848C10.4408 8.8 10.8428 8.888 11.1908 9.064C11.5428 9.236 11.8148 9.48 12.0068 9.796C12.2028 10.112 12.3008 10.48 12.3008 10.9C12.3008 11.32 12.2028 11.688 12.0068 12.004C11.8148 12.32 11.5428 12.566 11.1908 12.742C10.8428 12.914 10.4408 13 9.9848 13H8.0768V8.8ZM9.9368 12.202C10.3568 12.202 10.6908 12.086 10.9388 11.854C11.1908 11.618 11.3168 11.3 11.3168 10.9C11.3168 10.5 11.1908 10.184 10.9388 9.952C10.6908 9.716 10.3568 9.598 9.9368 9.598H9.0488V12.202H9.9368ZM14.4138 13.072C14.0818 13.072 13.7598 13.028 13.4478 12.94C13.1398 12.848 12.8918 12.73 12.7038 12.586L13.0338 11.854C13.2138 11.986 13.4278 12.092 13.6758 12.172C13.9238 12.252 14.1718 12.292 14.4198 12.292C14.6958 12.292 14.8998 12.252 15.0318 12.172C15.1638 12.088 15.2298 11.978 15.2298 11.842C15.2298 11.742 15.1898 11.66 15.1098 11.596C15.0338 11.528 14.9338 11.474 14.8098 11.434C14.6898 11.394 14.5258 11.35 14.3178 11.302C13.9978 11.226 13.7358 11.15 13.5318 11.074C13.3278 10.998 13.1518 10.876 13.0038 10.708C12.8598 10.54 12.7878 10.316 12.7878 10.036C12.7878 9.792 12.8538 9.572 12.9858 9.376C13.1178 9.176 13.3158 9.018 13.5798 8.902C13.8478 8.786 14.1738 8.728 14.5578 8.728C14.8258 8.728 15.0878 8.76 15.3438 8.824C15.5998 8.888 15.8238 8.98 16.0158 9.1L15.7158 9.838C15.3278 9.618 14.9398 9.508 14.5518 9.508C14.2798 9.508 14.0778 9.552 13.9458 9.64C13.8178 9.728 13.7538 9.844 13.7538 9.988C13.7538 10.132 13.8278 10.24 13.9758 10.312C14.1278 10.38 14.3578 10.448 14.6658 10.516C14.9858 10.592 15.2478 10.668 15.4518 10.744C15.6558 10.82 15.8298 10.94 15.9738 11.104C16.1218 11.268 16.1958 11.49 16.1958 11.77C16.1958 12.01 16.1278 12.23 15.9918 12.43C15.8598 12.626 15.6598 12.782 15.3918 12.898C15.1238 13.014 14.7978 13.072 14.4138 13.072Z" fill="white"/>
<path fill-rule="evenodd" clip-rule="evenodd" d="M6.47326 16.1506C6.32013 16.1651 6.16457 16.1726 6.0069 16.1726C3.41161 16.1726 1.38621 14.1483 1.38621 11.7464C1.38621 9.80982 2.59387 7.83939 4.08891 5.95716C4.45026 5.50223 4.81389 5.0693 5.16549 4.65282L5.26173 4.53887L5.26176 4.53884C5.51192 4.24268 5.75877 3.95043 5.98513 3.67288C6.23549 3.99713 6.51197 4.34165 6.79332 4.69224L6.82638 4.73343C7.17915 5.17304 7.54505 5.62964 7.90939 6.10587C8.0742 6.32129 8.23699 6.53856 8.39609 6.75724C8.87059 6.59758 9.37379 6.50036 9.89592 6.47537C9.23896 5.52497 8.51991 4.62896 7.88076 3.8325C7.49636 3.3535 7.14087 2.9105 6.84515 2.51334C6.33818 1.83248 6.0069 1.2863 6.0069 0.924316C6.0069 1.30526 5.66878 1.83803 5.15299 2.49477C4.87802 2.84488 4.55254 3.23022 4.20088 3.64657C2.43182 5.74105 0 8.6202 0 11.7464C0 14.9565 2.68938 17.5588 6.0069 17.5588C6.76044 17.5588 7.48158 17.4246 8.14615 17.1794C7.52649 16.937 6.9611 16.5863 6.47326 16.1506Z" fill="white"/>
</svg>
