<svg width="13" height="13" viewBox="0 0 13 13" fill="none" xmlns="http://www.w3.org/2000/svg">
<path fill-rule="evenodd" clip-rule="evenodd" d="M2.60003 1.3C2.60003 0.955219 2.737 0.624558 2.98079 0.380761C3.22459 0.136964 3.55525 0 3.90003 0L9.2309 0L12.1334 1.9344V9.96667C12.1334 10.3114 11.9964 10.6421 11.7526 10.8859C11.5088 11.1297 11.1781 11.2667 10.8334 11.2667H10.4V11.7C10.4 12.0448 10.2631 12.3754 10.0193 12.6192C9.77547 12.863 9.44481 13 9.10003 13H2.1667C1.82192 13 1.49126 12.863 1.24746 12.6192C1.00366 12.3754 0.866699 12.0448 0.866699 11.7V3.03333C0.866699 2.68855 1.00366 2.35789 1.24746 2.11409C1.49126 1.8703 1.82192 1.73333 2.1667 1.73333H2.60003V1.3ZM2.60003 2.6H2.1667C2.05177 2.6 1.94155 2.64565 1.86029 2.72692C1.77902 2.80819 1.73337 2.91841 1.73337 3.03333V11.7C1.73337 11.8149 1.77902 11.9251 1.86029 12.0064C1.94155 12.0877 2.05177 12.1333 2.1667 12.1333H9.10003C9.21496 12.1333 9.32518 12.0877 9.40645 12.0064C9.48771 11.9251 9.53337 11.8149 9.53337 11.7V11.2667H3.90003C3.55525 11.2667 3.22459 11.1297 2.98079 10.8859C2.737 10.6421 2.60003 10.3114 2.60003 9.96667V2.6Z" fill="#222222"/>
</svg>
