<svg width="16" height="18" viewBox="0 0 16 18" fill="none" xmlns="http://www.w3.org/2000/svg">
<path d="M6.75312 8.9702C7.12278 8.9702 7.45793 9.05645 7.75859 9.22896C8.06417 9.39653 8.30321 9.63558 8.47572 9.94609C8.64823 10.2517 8.73448 10.609 8.73448 11.0181C8.73448 11.4272 8.64823 11.787 8.47572 12.0975C8.30321 12.4031 8.06417 12.6421 7.75859 12.8146C7.45793 12.9822 7.12278 13.066 6.75312 13.066C6.24546 13.066 5.84624 12.9058 5.55544 12.5854V14.4411H4.40212V9.02934H5.50369V9.48772C5.78956 9.1427 6.20603 8.9702 6.75312 8.9702ZM6.55351 12.1197C6.84924 12.1197 7.09074 12.0211 7.27804 11.8239C7.47026 11.6219 7.56637 11.3532 7.56637 11.0181C7.56637 10.6829 7.47026 10.4168 7.27804 10.2196C7.09074 10.0176 6.84924 9.91652 6.55351 9.91652C6.25779 9.91652 6.01381 10.0176 5.82159 10.2196C5.6343 10.4168 5.54065 10.6829 5.54065 11.0181C5.54065 11.3532 5.6343 11.6219 5.82159 11.8239C6.01381 12.0211 6.25779 12.1197 6.55351 12.1197ZM14.3342 7.83166V13.0068H13.1366V10.885H10.7855V13.0068H9.58786V7.83166H10.7855V9.87216H13.1366V7.83166H14.3342Z" fill="white"/>
<path fill-rule="evenodd" clip-rule="evenodd" d="M6.47326 16.1506C6.32013 16.1651 6.16457 16.1726 6.0069 16.1726C3.41161 16.1726 1.38621 14.1483 1.38621 11.7464C1.38621 9.80982 2.59387 7.83939 4.08891 5.95716C4.45026 5.50223 4.81389 5.0693 5.16549 4.65282L5.26173 4.53887L5.26176 4.53884C5.51192 4.24268 5.75877 3.95043 5.98513 3.67288C6.23549 3.99713 6.51197 4.34165 6.79332 4.69224L6.82638 4.73343C7.17915 5.17304 7.54505 5.62964 7.90939 6.10587C8.0742 6.32129 8.23699 6.53856 8.39609 6.75724C8.87059 6.59758 9.37379 6.50036 9.89592 6.47537C9.23896 5.52497 8.51991 4.62896 7.88076 3.8325C7.49636 3.3535 7.14087 2.9105 6.84515 2.51334C6.33818 1.83248 6.0069 1.2863 6.0069 0.924316C6.0069 1.30526 5.66878 1.83803 5.15299 2.49477C4.87802 2.84488 4.55254 3.23022 4.20088 3.64657C2.43182 5.74105 0 8.6202 0 11.7464C0 14.9565 2.68938 17.5588 6.0069 17.5588C6.76044 17.5588 7.48158 17.4246 8.14615 17.1794C7.52649 16.937 6.9611 16.5863 6.47326 16.1506Z" fill="white"/>
</svg>
