<svg width="10" height="16" viewBox="0 0 10 16" fill="none" xmlns="http://www.w3.org/2000/svg">
<path d="M3.99808 8.93598V5.59999H5.59808V8.93598C6.13185 9.12469 6.58172 9.49603 6.86818 9.98436C7.15464 10.4727 7.25925 11.0466 7.16351 11.6046C7.06777 12.1626 6.77786 12.6687 6.345 13.0337C5.91215 13.3986 5.36423 13.5987 4.79808 13.5987C4.23193 13.5987 3.68401 13.3986 3.25116 13.0337C2.8183 12.6687 2.52839 12.1626 2.43265 11.6046C2.33691 11.0466 2.44152 10.4727 2.72798 9.98436C3.01444 9.49603 3.46431 9.12469 3.99808 8.93598ZM3.19808 8.43198C2.58803 8.78419 2.11125 9.32786 1.84167 9.97867C1.5721 10.6295 1.52481 11.351 1.70713 12.0315C1.88944 12.7119 2.29119 13.3132 2.85005 13.742C3.40891 14.1708 4.09365 14.4032 4.79808 14.4032C5.50251 14.4032 6.18725 14.1708 6.74611 13.742C7.30497 13.3132 7.70672 12.7119 7.88904 12.0315C8.07135 11.351 8.02406 10.6295 7.75449 9.97867C7.48491 9.32786 7.00813 8.78419 6.39808 8.43198V3.19999C6.39808 2.77565 6.22951 2.36868 5.92945 2.06862C5.62939 1.76857 5.22243 1.6 4.79808 1.6C4.37373 1.6 3.96677 1.76857 3.66671 2.06862C3.36666 2.36868 3.19808 2.77565 3.19808 3.19999V8.42398V8.43198ZM1.59809 7.62398V3.19999C1.59809 2.3513 1.93523 1.53737 2.53534 0.937256C3.13546 0.337141 3.94939 0 4.79808 0C5.64677 0 6.4607 0.337141 7.06082 0.937256C7.66093 1.53737 7.99807 2.3513 7.99807 3.19999V7.62398C8.72633 8.27031 9.24041 9.12316 9.47185 10.069C9.7033 11.0148 9.64114 12.0086 9.29364 12.9182C8.94614 13.8278 8.32979 14.6099 7.52667 15.1605C6.72355 15.711 5.77178 16.0038 4.79808 16C3.82634 15.9996 2.87761 15.7043 2.07732 15.1531C1.27703 14.6019 0.662888 13.8208 0.31609 12.913C-0.0307094 12.0053 -0.0938273 11.0136 0.135081 10.0693C0.36399 9.12487 0.874144 8.27219 1.59809 7.62398Z" fill="black"/>
</svg>
