<svg width="11" height="17" viewBox="0 0 11 17" fill="none" xmlns="http://www.w3.org/2000/svg">
<mask id="path-1-outside-1_326_475" maskUnits="userSpaceOnUse" x="0" y="-0.303711" width="11" height="18" fill="black">
<rect fill="white" y="-0.303711" width="11" height="18"/>
<path fill-rule="evenodd" clip-rule="evenodd" d="M5.69655 1.69629C4.67578 1.69629 3.84828 2.52379 3.84828 3.54457V8.65979C2.74337 9.29894 2 10.4936 2 11.8618C2 13.9034 3.655 15.5584 5.69655 15.5584C7.73811 15.5584 9.39311 13.9034 9.39311 11.8618C9.39311 10.4936 8.64973 9.29894 7.54483 8.65979V3.54457C7.54483 2.52379 6.71733 1.69629 5.69655 1.69629Z"/>
</mask>
<path d="M3.84828 8.65979L4.4267 9.65972L5.00345 9.32609V8.65979H3.84828ZM7.54483 8.65979H6.38966V9.32609L6.96641 9.65972L7.54483 8.65979ZM5.00345 3.54457C5.00345 3.16178 5.31376 2.85146 5.69655 2.85146V0.541116C4.0378 0.541116 2.6931 1.8858 2.6931 3.54457H5.00345ZM5.00345 8.65979V3.54457H2.6931V8.65979H5.00345ZM3.15517 11.8618C3.15517 10.9226 3.66407 10.1009 4.4267 9.65972L3.26985 7.65987C1.82268 8.49701 0.844827 10.0645 0.844827 11.8618H3.15517ZM5.69655 14.4032C4.29299 14.4032 3.15517 13.2654 3.15517 11.8618H0.844827C0.844827 14.5414 3.01702 16.7135 5.69655 16.7135V14.4032ZM8.23794 11.8618C8.23794 13.2654 7.10012 14.4032 5.69655 14.4032V16.7135C8.37609 16.7135 10.5483 14.5414 10.5483 11.8618H8.23794ZM6.96641 9.65972C7.72904 10.1009 8.23794 10.9226 8.23794 11.8618H10.5483C10.5483 10.0645 9.57043 8.49701 8.12326 7.65987L6.96641 9.65972ZM6.38966 3.54457V8.65979H8.70001V3.54457H6.38966ZM5.69655 2.85146C6.07935 2.85146 6.38966 3.16178 6.38966 3.54457H8.70001C8.70001 1.88581 7.35531 0.541116 5.69655 0.541116V2.85146Z" fill="white" mask="url(#path-1-outside-1_326_475)"/>
<path fill-rule="evenodd" clip-rule="evenodd" d="M6.38964 6.31738H5.00343V9.65764C4.0661 9.95204 3.38618 10.8277 3.38618 11.8622C3.38618 13.1382 4.42056 14.1726 5.69653 14.1726C6.9725 14.1726 8.00688 13.1382 8.00688 11.8622C8.00688 10.8277 7.32697 9.95204 6.38964 9.65764V6.31738Z" fill="white"/>
</svg>
