<svg width="13" height="11" viewBox="0 0 13 11" fill="none" xmlns="http://www.w3.org/2000/svg">
<path d="M12.2942 0.340473L12.2611 0.0770708L11.9978 0.0439238C10.307 -0.16887 8.64891 0.398178 7.44712 1.60015C6.86749 2.17974 6.43716 2.86619 6.16908 3.61057C5.90099 2.86619 5.47067 2.17974 4.89104 1.60015C3.68915 0.398271 2.03096 -0.168779 0.34037 0.0439238L0.0770613 0.0770708L0.0439143 0.340473C-0.16888 2.03051 0.398356 3.68907 1.60024 4.89095C2.63592 5.92673 4.01092 6.49116 5.45295 6.49116C5.57724 6.49116 5.70207 6.48618 5.82715 6.47773V10.5945H6.51101V6.4777C6.63607 6.48612 6.76087 6.49107 6.88521 6.49107C8.32715 6.49107 9.70224 5.92664 10.7379 4.89095C11.9398 3.68907 12.507 2.03051 12.2942 0.340473ZM5.79525 5.79517C4.41101 5.89284 3.07103 5.3947 2.08372 4.40747C1.0964 3.42016 0.598728 2.08018 0.695928 0.695845C2.07811 0.598924 3.42015 1.09632 4.40756 2.08363C5.39478 3.07095 5.89245 4.41084 5.79525 5.79517ZM10.2544 4.40747C9.26712 5.39479 7.92733 5.89293 6.5429 5.79517C6.4457 4.41084 6.94338 3.07095 7.9306 2.08363C8.91791 1.09632 10.2575 0.598366 11.6422 0.695847C11.7394 2.08018 11.2418 3.42016 10.2544 4.40747Z" fill="#58C45A"/>
</svg>
