<svg width="12" height="13" viewBox="0 0 12 13" fill="none" xmlns="http://www.w3.org/2000/svg">
<path d="M5.09122 5.78831C5.3699 5.78831 5.62257 5.85334 5.84924 5.98339C6.07962 6.10973 6.25983 6.28994 6.38988 6.52404C6.51994 6.75442 6.58496 7.02381 6.58496 7.33222C6.58496 7.64063 6.51994 7.91189 6.38988 8.14598C6.25983 8.37636 6.07962 8.55657 5.84924 8.68663C5.62257 8.81296 5.3699 8.87613 5.09122 8.87613C4.70849 8.87613 4.40751 8.75537 4.18828 8.51384V9.91284H3.31879V5.8329H4.14926V6.17847C4.36478 5.91836 4.67876 5.78831 5.09122 5.78831ZM4.94073 8.1627C5.16367 8.1627 5.34575 8.08839 5.48695 7.93975C5.63186 7.78741 5.70432 7.5849 5.70432 7.33222C5.70432 7.07955 5.63186 6.8789 5.48695 6.73026C5.34575 6.57792 5.16367 6.50174 4.94073 6.50174C4.71778 6.50174 4.53385 6.57792 4.38893 6.73026C4.24773 6.8789 4.17713 7.07955 4.17713 7.33222C4.17713 7.5849 4.24773 7.78741 4.38893 7.93975C4.53385 8.08839 4.71778 8.1627 4.94073 8.1627ZM10.8066 4.92996V8.83154H9.9037V7.2319H8.13127V8.83154H7.22833V4.92996H8.13127V6.4683H9.9037V4.92996H10.8066Z" fill="#222222"/>
<path fill-rule="evenodd" clip-rule="evenodd" d="M4.88043 11.4791C4.76491 11.4901 4.64756 11.4957 4.52862 11.4957C2.57202 11.4957 1.04507 9.96957 1.04507 8.15877C1.04507 6.6988 1.95553 5.21329 3.08264 3.79427C3.35506 3.4513 3.6292 3.12491 3.89428 2.81093L3.96685 2.72499C4.15545 2.50172 4.34155 2.2814 4.51221 2.07215C4.70095 2.3166 4.90939 2.57633 5.1215 2.84064L5.14642 2.8717C5.41238 3.20312 5.68823 3.54735 5.96291 3.90638C6.08713 4.06876 6.20984 4.23253 6.32977 4.39736C6.68748 4.27698 7.06684 4.20368 7.46046 4.18482C6.9652 3.46836 6.42315 2.7929 5.94132 2.19248C5.65153 1.83137 5.38352 1.49739 5.16057 1.19797C4.77837 0.684664 4.52862 0.272903 4.52862 0C4.52862 0.287192 4.27371 0.688854 3.88485 1.18397C3.67755 1.44792 3.43217 1.73843 3.16706 2.05232C1.83336 3.63135 0 5.80195 0 8.15877C0 10.5789 2.02753 12.5408 4.52862 12.5408C5.0968 12.5408 5.64055 12.4395 6.14163 12.2547C5.67447 12.0719 5.24822 11.8075 4.88043 11.4791Z" fill="#222222"/>
</svg>
