<svg width="13" height="13" viewBox="0 0 13 13" fill="none" xmlns="http://www.w3.org/2000/svg">
<path d="M3.94882 7.01127H2.93557V6.41418H5.69486V7.01127H4.68161V9.58057H3.94882V7.01127ZM6.08914 6.41418H7.52758C7.87136 6.41418 8.17443 6.48052 8.43679 6.61321C8.70216 6.74288 8.90722 6.92683 9.05197 7.16506C9.19974 7.4033 9.27362 7.68073 9.27362 7.99737C9.27362 8.31401 9.19974 8.59145 9.05197 8.82968C8.90722 9.06791 8.70216 9.25337 8.43679 9.38606C8.17443 9.51573 7.87136 9.58057 7.52758 9.58057H6.08914V6.41418ZM7.49139 8.97895C7.80803 8.97895 8.05984 8.8915 8.2468 8.71659C8.43679 8.53867 8.53178 8.29893 8.53178 7.99737C8.53178 7.69581 8.43679 7.45758 8.2468 7.28267C8.05984 7.10475 7.80803 7.01579 7.49139 7.01579H6.82193V8.97895H7.49139ZM10.8666 9.63485C10.6163 9.63485 10.3736 9.60168 10.1384 9.53533C9.90617 9.46597 9.7192 9.37701 9.57747 9.26845L9.82625 8.71659C9.96196 8.81611 10.1233 8.89602 10.3103 8.95634C10.4972 9.01665 10.6842 9.0468 10.8712 9.0468C11.0792 9.0468 11.233 9.01665 11.3325 8.95634C11.4321 8.89301 11.4818 8.81008 11.4818 8.70755C11.4818 8.63216 11.4517 8.57034 11.3914 8.52209C11.3341 8.47082 11.2587 8.43011 11.1652 8.39996C11.0747 8.3698 10.9511 8.33663 10.7943 8.30044C10.553 8.24314 10.3555 8.18585 10.2017 8.12855C10.0479 8.07125 9.91521 7.97928 9.80364 7.85262C9.69507 7.72597 9.64079 7.55709 9.64079 7.346C9.64079 7.16205 9.69055 6.99619 9.79007 6.84842C9.88958 6.69764 10.0389 6.57853 10.2379 6.49107C10.4399 6.40362 10.6857 6.3599 10.9752 6.3599C11.1772 6.3599 11.3748 6.38402 11.5678 6.43227C11.7608 6.48052 11.9296 6.54988 12.0744 6.64035L11.8482 7.19673C11.5557 7.03087 11.2632 6.94794 10.9707 6.94794C10.7656 6.94794 10.6133 6.98111 10.5138 7.04745C10.4173 7.1138 10.3691 7.20125 10.3691 7.30981C10.3691 7.41837 10.4249 7.4998 10.5364 7.55408C10.651 7.60534 10.8244 7.65661 11.0566 7.70787C11.2979 7.76517 11.4954 7.82247 11.6492 7.87976C11.803 7.93706 11.9342 8.02753 12.0427 8.15117C12.1543 8.27481 12.2101 8.44217 12.2101 8.65327C12.2101 8.8342 12.1588 9.00006 12.0563 9.15084C11.9568 9.29861 11.806 9.41622 11.604 9.50367C11.4019 9.59112 11.1561 9.63485 10.8666 9.63485Z" fill="#222222"/>
<path fill-rule="evenodd" clip-rule="evenodd" d="M4.88038 11.4791C4.76488 11.4901 4.64754 11.4957 4.52862 11.4957C2.57202 11.4957 1.04507 9.96957 1.04507 8.15877C1.04507 6.6988 1.95553 5.21329 3.08264 3.79427C3.35506 3.4513 3.6292 3.12491 3.89428 2.81093L3.96685 2.72499C4.15545 2.50172 4.34155 2.2814 4.51221 2.07215C4.70095 2.3166 4.90939 2.57633 5.1215 2.84064L5.14642 2.8717C5.41238 3.20312 5.68823 3.54735 5.96291 3.90638C6.08713 4.06876 6.20983 4.23253 6.32976 4.39735C6.68748 4.27698 7.06684 4.20368 7.46047 4.18482C6.96521 3.46836 6.42315 2.7929 5.94132 2.19248C5.65153 1.83137 5.38352 1.49739 5.16057 1.19797C4.77837 0.684664 4.52862 0.272903 4.52862 0C4.52862 0.287192 4.27371 0.688854 3.88485 1.18397C3.67755 1.44792 3.43217 1.73843 3.16706 2.05232C1.83336 3.63135 0 5.80195 0 8.15877C0 10.5789 2.02753 12.5408 4.52862 12.5408C5.09679 12.5408 5.64052 12.4395 6.1416 12.2547C5.67443 12.0719 5.24818 11.8076 4.88038 11.4791Z" fill="#222222"/>
</svg>
