<svg width="13" height="18" viewBox="0 0 13 18" fill="none" xmlns="http://www.w3.org/2000/svg">
<path d="M8.4702 11.2166C8.4702 11.9722 7.85766 12.5847 7.10205 12.5847C6.34645 12.5847 5.73391 11.9722 5.73391 11.2166C5.73391 10.6272 6.08541 10.0545 6.47337 9.54977C6.56883 9.42557 6.66459 9.30777 6.75578 9.19613C6.76406 9.18599 6.77232 9.17589 6.78054 9.16583C6.8621 9.06604 6.94031 8.97036 7.00844 8.88209C7.04054 8.84049 7.07133 8.79938 7.09992 8.75909C7.12881 8.80183 7.16009 8.84577 7.19287 8.89047C7.26559 8.98963 7.34969 9.09794 7.43761 9.21116L7.44541 9.22121C7.53676 9.33885 7.63283 9.46273 7.72869 9.59222C7.92086 9.85182 8.10786 10.1283 8.24652 10.4083C8.38564 10.6892 8.4702 10.9621 8.4702 11.2166Z" fill="white" stroke="white" stroke-width="0.378219"/>
<mask id="path-2-inside-1_326_465" fill="white">
<path fill-rule="evenodd" clip-rule="evenodd" d="M12.0138 3.87164C12.0138 3.8677 12.0139 3.86376 12.0139 3.85982C12.0139 2.23858 9.32447 0.924316 6.00695 0.924316C2.68971 0.924316 0.000495066 2.23837 4.76674e-05 3.85941H0V14.786C0 16.3172 1.24125 17.5584 2.77242 17.5584H9.24139C10.7725 17.5584 12.0138 16.3172 12.0138 14.786V3.87164Z"/>
</mask>
<path d="M12.0138 3.87164L10.6276 3.86056V3.87164H12.0138ZM4.76674e-05 3.85941V5.24562H1.38587L1.38626 3.85979L4.76674e-05 3.85941ZM0 3.85941V2.4732H-1.38621V3.85941H0ZM10.6276 3.85982C10.6276 3.85996 10.6276 3.86021 10.6276 3.86056L13.4 3.88271C13.4 3.87519 13.4001 3.86756 13.4001 3.85982H10.6276ZM6.00695 2.31052C7.5015 2.31052 8.78627 2.60949 9.64583 3.02955C10.0756 3.23958 10.3459 3.45369 10.4937 3.62436C10.5646 3.70635 10.5981 3.7675 10.6132 3.80362C10.6271 3.83684 10.6276 3.85327 10.6276 3.85982H13.4001C13.4001 2.22456 12.0854 1.13598 10.8631 0.538658C9.5486 -0.103723 7.82991 -0.461892 6.00695 -0.461892V2.31052ZM1.38626 3.85979C1.38626 3.85326 1.38682 3.83681 1.40075 3.80355C1.41589 3.76741 1.44936 3.70624 1.52035 3.62424C1.66812 3.45355 1.93849 3.23945 2.36827 3.02945C3.22785 2.60944 4.51252 2.31052 6.00695 2.31052V-0.461892C4.18413 -0.461892 2.46558 -0.103781 1.15113 0.538495C-0.0711256 1.13572 -1.38571 2.22405 -1.38616 3.85903L1.38626 3.85979ZM0 5.24562H4.76674e-05V2.4732H0V5.24562ZM1.38621 14.786V3.85941H-1.38621V14.786H1.38621ZM2.77242 16.1722C2.00683 16.1722 1.38621 15.5516 1.38621 14.786H-1.38621C-1.38621 17.0827 0.475675 18.9446 2.77242 18.9446V16.1722ZM9.24139 16.1722H2.77242V18.9446H9.24139V16.1722ZM10.6276 14.786C10.6276 15.5516 10.007 16.1722 9.24139 16.1722V18.9446C11.5381 18.9446 13.4 17.0827 13.4 14.786H10.6276ZM10.6276 3.87164V14.786H13.4V3.87164H10.6276Z" fill="white" mask="url(#path-2-inside-1_326_465)"/>
<path d="M11.0896 3.69653C11.0896 4.71731 8.814 5.54481 6.00687 5.54481C3.19973 5.54481 0.924103 4.71731 0.924103 3.69653" stroke="white" stroke-width="0.924139"/>
<rect x="0.924103" y="12.938" width="1.84828" height="0.924139" fill="white"/>
<rect x="0.924103" y="10.1655" width="1.84828" height="0.924139" fill="white"/>
<rect x="0.924103" y="7.39307" width="1.84828" height="0.924139" fill="white"/>
</svg>
